<?xml version="1.0" encoding="UTF-8"?>
<svg version="1.1" xmlns="http://www.w3.org/2000/svg" width="1591" height="465">
<path d="M0 0 C8.59939116 7.31412006 14.95563115 16.22288872 20.41015625 26.03125 C20.9928125 25.08765625 21.57546875 24.1440625 22.17578125 23.171875 C32.22939185 7.25817186 43.83356026 -5.47582215 62.76953125 -10.15625 C80.92878173 -13.80633111 100.67828995 -10.79296136 116.41015625 -0.96875 C134.54098652 11.74479316 143.36499659 29.72674244 147.41015625 51.03125 C148.335219 57.24239215 148.55403424 63.27239049 148.54386902 69.54672241 C148.54613458 70.58120187 148.54840013 71.61568134 148.55073434 72.68150866 C148.55704521 76.13452636 148.55624687 79.58750453 148.55541992 83.04052734 C148.55841305 85.52118989 148.56181593 88.00185196 148.56559753 90.48251343 C148.57350614 96.51132749 148.57665124 102.5401261 148.57720991 108.5689439 C148.57768574 113.46671622 148.57974378 118.36448532 148.58291054 123.26225662 C148.59170726 137.14991889 148.59633092 151.03757346 148.59558006 164.92523853 C148.59552013 166.04674985 148.59552013 166.04674985 148.59545898 167.19091797 C148.5954181 167.93950426 148.59537722 168.68809055 148.5953351 169.45936127 C148.59492789 181.61458454 148.60451881 193.76977696 148.61859735 205.92499129 C148.63294095 218.4073734 148.6398688 230.88974043 148.63900357 243.37213099 C148.63867113 250.37974709 148.64143968 257.38733074 148.65218163 264.39493942 C148.66220555 270.9760488 148.66197221 277.55710109 148.65466499 284.13821793 C148.65361396 286.55944671 148.65601246 288.9806797 148.66202545 291.40190125 C148.66967484 294.69390988 148.66514791 297.9856765 148.65739441 301.27767944 C148.66253797 302.24691577 148.66768154 303.2161521 148.67298096 304.21475923 C148.66608277 305.53005552 148.66608277 305.53005552 148.65904522 306.87192345 C148.65937127 308.01255369 148.65937127 308.01255369 148.65970391 309.17622697 C148.41015625 311.03125 148.41015625 311.03125 146.41015625 313.03125 C144.10351562 313.29003906 144.10351562 313.29003906 141.25390625 313.296875 C140.23167969 313.29945313 139.20945312 313.30203125 138.15625 313.3046875 C137.08503906 313.29695313 136.01382813 313.28921875 134.91015625 313.28125 C133.83894531 313.28898437 132.76773438 313.29671875 131.6640625 313.3046875 C130.64183594 313.30210937 129.61960937 313.29953125 128.56640625 313.296875 C127.62603516 313.29461914 126.68566406 313.29236328 125.71679688 313.29003906 C123.41015625 313.03125 123.41015625 313.03125 121.41015625 311.03125 C121.20844323 307.9172546 121.1339486 304.89153796 121.1451416 301.77603149 C121.1385697 300.31843102 121.1385697 300.31843102 121.13186502 298.83138406 C121.11947934 295.5537218 121.12135767 292.27621821 121.12304688 288.99853516 C121.11702621 286.65633403 121.11010287 284.31413508 121.1023407 281.97193909 C121.08741305 276.91424548 121.07869255 271.85659161 121.07463074 266.79887772 C121.06849214 259.46445639 121.05028503 252.13009869 121.0281902 244.79570918 C120.99242657 232.86805016 120.96414136 220.94038688 120.94189453 209.01269531 C120.94055954 208.29833436 120.93922455 207.58397342 120.9378491 206.84796517 C120.92843266 201.78406044 120.91927541 196.72015526 120.91015625 191.65625 C120.89977861 185.90299441 120.88925237 180.14973913 120.87841797 174.39648438 C120.87708723 173.68845195 120.87575648 172.98041953 120.87438542 172.25093158 C120.85185259 160.3901404 120.82159979 148.52938046 120.78602552 136.66862142 C120.76259189 128.72107278 120.74896686 120.77356287 120.74253082 112.82597947 C120.73654365 107.85048461 120.72240412 102.87503576 120.70618629 97.89956474 C120.70036585 95.61168841 120.69782635 93.3238007 120.69902611 91.03591728 C121.53197164 56.22425677 121.53197164 56.22425677 106.52734375 25.99609375 C104.56820974 24.18677587 102.57521354 22.58660725 100.41015625 21.03125 C99.55550781 20.41443359 99.55550781 20.41443359 98.68359375 19.78515625 C89.86485547 14.48225856 76.9874509 14.12761984 67.1640625 16.19921875 C55.78819875 19.63618184 48.38883534 25.86612743 42.41015625 36.03125 C34.7612274 52.07191706 35.11438545 67.93200312 35.12304688 85.31103516 C35.11701639 87.7725853 35.11009057 90.23413338 35.1023407 92.69567871 C35.0875024 97.97641406 35.07849279 103.25710974 35.07463074 108.53786087 C35.06886028 116.17491866 35.05023916 123.8119054 35.0281902 131.44893162 C34.99256022 143.84533732 34.96420397 156.24174704 34.94189453 168.63818359 C34.94055954 169.37852665 34.93922455 170.1188697 34.9378491 170.88164739 C34.92706422 176.89362565 34.91663673 182.90560451 34.90624905 188.91758347 C34.89713289 194.18773172 34.88788237 199.45787971 34.87841797 204.72802734 C34.87642186 205.84172545 34.87642186 205.84172545 34.87438542 206.97792251 C34.8519822 219.34292858 34.8218083 231.70790383 34.78602552 244.07287824 C34.76434371 251.69576481 34.7497353 259.31860347 34.74418676 266.94151919 C34.73945107 272.76910432 34.72469699 278.5966357 34.70618629 284.42419434 C34.7002853 286.8196185 34.69784321 289.21505393 34.69902611 291.61048508 C34.70017641 294.86726423 34.68924076 298.12378014 34.6751709 301.38052368 C34.68011936 302.81861261 34.68011936 302.81861261 34.68516779 304.28575385 C34.67893569 305.15318445 34.6727036 306.02061506 34.66628265 306.91433144 C34.66449139 308.04259596 34.66449139 308.04259596 34.66266394 309.1936537 C34.41015625 311.03125 34.41015625 311.03125 32.41015625 313.03125 C30.10351562 313.27416992 30.10351562 313.27416992 27.25390625 313.26171875 C26.23167969 313.25978516 25.20945313 313.25785156 24.15625 313.25585938 C23.08503906 313.24361328 22.01382813 313.23136719 20.91015625 313.21875 C19.83894531 313.21810547 18.76773438 313.21746094 17.6640625 313.21679688 C9.69075853 313.17155114 9.69075853 313.17155114 7.41015625 312.03125 C6.48773807 309.26399546 6.28377058 307.62842462 6.27987099 304.77566624 C6.27624664 303.90276119 6.27262229 303.02985614 6.26888812 302.13049942 C6.26995637 301.17079536 6.27102462 300.2110913 6.27212524 299.2223053 C6.26930396 298.20323717 6.26648268 297.18416904 6.26357591 296.13422006 C6.25521073 292.70283507 6.25388999 289.27148226 6.25244141 285.84008789 C6.24777446 283.38623971 6.24263109 280.9323924 6.23704529 278.47854614 C6.2257517 273.18458657 6.21727266 267.89063331 6.21092606 262.59666634 C6.20059579 254.22127817 6.18002928 245.84592964 6.1578064 237.4705658 C6.15032627 234.60399355 6.14291252 231.73742113 6.13551903 228.87084866 C6.13366846 228.15438829 6.1318179 227.43792793 6.12991125 226.69975664 C6.10897873 218.54162223 6.09015517 210.38348341 6.07226562 202.2253418 C6.07062744 201.47954172 6.06898926 200.73374164 6.06730144 199.96534156 C6.04105411 187.8974074 6.02239055 175.82947019 6.00567372 163.76151962 C5.98822196 151.36283485 5.95934099 138.96420975 5.92078435 126.56557268 C5.89744457 118.92410514 5.88339521 111.28273493 5.88145672 103.64123147 C5.879088 97.77424374 5.86115752 91.90736725 5.83758736 86.04042435 C5.83041132 83.64114927 5.82828513 81.24185274 5.83168983 78.84256935 C6.04166665 62.17644916 6.04166665 62.17644916 2.41015625 46.03125 C1.84554687 44.30841797 1.84554687 44.30841797 1.26953125 42.55078125 C-3.36329377 31.24603569 -9.48417951 23.17757925 -20.77734375 18.03515625 C-31.62923949 13.98507373 -43.82413338 13.97111865 -54.61328125 18.22265625 C-65.58193875 23.73703611 -71.4461733 32.26826863 -75.52734375 43.64453125 C-78.15167234 51.95911078 -78.73753714 59.75384545 -78.72787476 68.41973877 C-78.73069604 69.45265824 -78.73351732 70.48557771 -78.73642409 71.54979777 C-78.74474319 75.00358378 -78.74610599 78.45733762 -78.74755859 81.91113281 C-78.75222854 84.39002573 -78.7573724 86.8689178 -78.76295471 89.34780884 C-78.77422097 94.68155125 -78.78271192 100.01528748 -78.78907394 105.34903717 C-78.79941747 113.77688165 -78.8199832 122.20468696 -78.8421936 130.63250732 C-78.84967213 133.51752078 -78.85708595 136.4025344 -78.86448097 139.28754807 C-78.86633154 140.00840419 -78.8681821 140.72926031 -78.87008875 141.47196056 C-78.89099461 149.66815221 -78.90983563 157.86434814 -78.92773438 166.06054688 C-78.92937256 166.80943636 -78.93101074 167.55832584 -78.93269856 168.32990894 C-78.95902285 180.48450045 -78.97764728 192.63909499 -78.99432628 204.79370299 C-79.0117303 217.2749619 -79.04055231 229.75616101 -79.07921565 242.23737216 C-79.10263649 249.935944 -79.11661207 257.63441839 -79.11854328 265.33302614 C-79.12089656 271.22434216 -79.13872857 277.11554579 -79.16241264 283.00681686 C-79.16963591 285.42761377 -79.17169208 287.8484322 -79.16831017 290.26923752 C-79.16444199 293.5632708 -79.17878369 296.85672741 -79.19784546 300.1506958 C-79.19231576 301.11770141 -79.18678607 302.08470702 -79.18108881 303.08101583 C-79.18992865 303.96048776 -79.19876849 304.8399597 -79.20787621 305.74608231 C-79.20923273 306.50666482 -79.21058926 307.26724734 -79.2119869 308.05087781 C-79.69454055 310.57997271 -80.5752823 311.47285193 -82.58984375 313.03125 C-84.91821289 313.38769531 -84.91821289 313.38769531 -87.625 313.359375 C-88.59888672 313.35421875 -89.57277344 313.3490625 -90.57617188 313.34375 C-91.59130859 313.323125 -92.60644531 313.3025 -93.65234375 313.28125 C-94.67134766 313.27609375 -95.69035156 313.2709375 -96.74023438 313.265625 C-104.28100404 313.18566985 -104.28100404 313.18566985 -106.58984375 312.03125 C-107.49606882 309.3125748 -107.71574528 307.74869629 -107.7184782 304.95697975 C-107.72170265 304.12445895 -107.7249271 303.29193815 -107.72824925 302.43418944 C-107.72670065 301.51953394 -107.72515205 300.60487844 -107.72355652 299.6625061 C-107.72695485 298.20468234 -107.72695485 298.20468234 -107.73042184 296.71740758 C-107.73677561 293.44521943 -107.73593155 290.17307256 -107.73510742 286.90087891 C-107.73809837 284.56015469 -107.74150074 282.21943096 -107.74528503 279.87870789 C-107.7541435 273.50370924 -107.75646414 267.12872401 -107.75710082 260.75371981 C-107.75793033 256.09621648 -107.76082976 251.43871614 -107.7639373 246.78121387 C-107.77225098 234.23805464 -107.77597903 221.69490251 -107.77526756 209.15174063 C-107.77522761 208.43908809 -107.77518765 207.72643556 -107.77514648 206.9921875 C-107.7751056 206.27865436 -107.77506472 205.56512123 -107.7750226 204.82996587 C-107.77461768 193.31127939 -107.78414584 181.79262584 -107.79828485 170.27394886 C-107.81271516 158.42331011 -107.81955114 146.57268733 -107.81869107 134.72203958 C-107.818361 128.07871558 -107.82122179 121.43542114 -107.83186913 114.79210281 C-107.84163561 108.52617183 -107.84157138 102.26031274 -107.83435249 95.99437904 C-107.83331665 93.71013978 -107.83560908 91.42589585 -107.84171295 89.14166451 C-107.86892414 78.24058514 -107.71314491 67.42617363 -106.71138 56.56503296 C-106.63541979 55.73268934 -106.55945958 54.90034572 -106.48119754 54.04277956 C-104.46722735 34.62304516 -96.15239986 15.41024682 -80.96728516 2.66992188 C-58.50897628 -14.52995221 -22.9769854 -17.46666764 0 0 Z " fill="#ECBE43" transform="translate(210.58984375,80.96875)"/>
<path d="M0 0 C14.3802468 13.32317212 22.94664628 31.08856839 23.99542236 50.74301147 C24.19953933 56.5197362 24.23871503 62.29453891 24.23779297 68.07446289 C24.24216344 71.13549585 24.27857336 74.19508043 24.31640625 77.25585938 C24.43382821 97.5186984 20.76475824 116.08592511 6.12890625 131.21875 C0.75260295 136.26077537 -4.33893924 139.56683426 -11.1328125 142.33984375 C-11.4628125 142.99984375 -11.7928125 143.65984375 -12.1328125 144.33984375 C-11.4728125 144.42234375 -10.8128125 144.50484375 -10.1328125 144.58984375 C3.74066896 148.05821412 15.11420602 159.55542234 22.26953125 171.4375 C30.64148237 186.64620338 32.38802876 202.28297994 32.25830078 219.33056641 C32.24219858 221.83811802 32.25826226 224.34405877 32.27734375 226.8515625 C32.30931566 250.34443469 26.82651784 271.5708295 10.5546875 289.15234375 C3.56734091 295.59729357 -4.28903092 300.32693798 -13.1328125 303.71484375 C-13.74825928 303.95340088 -14.36370605 304.19195801 -14.99780273 304.43774414 C-26.57629169 308.58716506 -38.57981818 308.65250856 -50.71875 308.640625 C-52.39116521 308.64452122 -54.06357944 308.64885776 -55.73599243 308.65361023 C-59.21709425 308.6610198 -62.69809451 308.66081717 -66.17919922 308.65551758 C-70.63104672 308.64969189 -75.08248236 308.66675359 -79.5342617 308.68986225 C-82.97785858 308.70460596 -86.42135594 308.70547108 -89.86497879 308.70235252 C-91.5067693 308.70286417 -93.1485656 308.70807232 -94.79032516 308.71816444 C-97.0823326 308.73054139 -99.37353226 308.72373329 -101.66552734 308.7121582 C-102.96614105 308.71278763 -104.26675476 308.71341705 -105.60678101 308.71406555 C-109.58708437 308.29163135 -111.83247925 307.60967098 -115.1328125 305.33984375 C-119.22696241 299.61947127 -119.70629748 295.24743593 -119.63401794 288.32476807 C-119.63955234 287.33172251 -119.64508674 286.33867696 -119.65078884 285.31553912 C-119.66437643 281.99558482 -119.64943527 278.67638476 -119.63452148 275.35644531 C-119.63830562 272.97247499 -119.64380644 270.58850686 -119.65089417 268.20454407 C-119.66341171 262.40309039 -119.65727814 256.60187727 -119.64221858 250.80043408 C-119.62531362 244.02829943 -119.62857505 237.25621844 -119.63231266 230.4840692 C-119.63819006 218.38272757 -119.62403181 206.28148997 -119.59936523 194.18017578 C-119.57550864 182.47473233 -119.56833624 170.76942822 -119.57885742 159.06396484 C-119.59031447 146.29459045 -119.59213304 133.52528051 -119.57775933 120.75590682 C-119.57623368 119.38878235 -119.57471332 118.02165787 -119.57319832 116.65453339 C-119.5724405 115.98206482 -119.57168269 115.30959624 -119.57090191 114.61674984 C-119.56619087 109.91374307 -119.5679882 105.21076537 -119.57226372 100.50775909 C-119.57707517 94.14816048 -119.5667609 87.78875218 -119.54530907 81.42918968 C-119.53979452 79.1086383 -119.5392261 76.78806842 -119.54426193 74.46751595 C-119.59015689 50.26255099 -117.76741935 28.59279392 -103.1328125 8.33984375 C-102.46185547 7.39238281 -102.46185547 7.39238281 -101.77734375 6.42578125 C-92.09466362 -6.01120965 -76.16042894 -13.84780372 -60.74609375 -15.9921875 C-39.38090646 -18.44607578 -16.59811127 -14.54775635 0 0 Z M-77.1328125 19.33984375 C-77.74769531 19.91476563 -78.36257813 20.4896875 -78.99609375 21.08203125 C-88.25278629 30.63604796 -91.48369768 44.1026778 -91.35986328 57.07250977 C-91.36015533 57.89312393 -91.36044739 58.7137381 -91.36074829 59.55921936 C-91.35936902 62.23750862 -91.34387485 64.9155101 -91.328125 67.59375 C-91.32438987 69.46418608 -91.32154526 71.33462412 -91.31954956 73.20506287 C-91.31195248 78.10244246 -91.29233812 82.99970141 -91.2701416 87.89703369 C-91.24959817 92.90464649 -91.24052975 97.91227899 -91.23046875 102.91992188 C-91.20908819 112.72661519 -91.17500017 122.5332194 -91.1328125 132.33984375 C-84.231844 132.41649671 -77.33098705 132.4686944 -70.4296875 132.50463867 C-68.08654681 132.51963813 -65.74343377 132.54004434 -63.40039062 132.56616211 C-60.01425308 132.6029366 -56.62848972 132.61965912 -53.2421875 132.6328125 C-51.69455719 132.65603828 -51.69455719 132.65603828 -50.11566162 132.67973328 C-36.92872508 132.68272095 -25.98354437 129.35949626 -16.06640625 120.4921875 C-3.99807748 107.79828661 -2.59979432 89.72514955 -2.74169922 73.07861328 C-2.75780524 70.84085188 -2.74173179 68.6048954 -2.72265625 66.3671875 C-2.69760161 48.88396353 -5.48774265 32.94269623 -17.65234375 19.68359375 C-26.99837123 10.76962107 -39.52116747 8.83518467 -51.9140625 9.0625 C-61.5406253 9.50225889 -70.13388126 12.69626664 -77.1328125 19.33984375 Z M-91.1328125 158.33984375 C-91.1328125 199.25984375 -91.1328125 240.17984375 -91.1328125 282.33984375 C-46.93932472 286.47957531 -46.93932472 286.47957531 -8.5078125 270.21484375 C6.85665575 253.97340813 5.3017392 230.2775856 4.96044922 209.55761719 C4.50009513 193.67419614 0.3869063 179.35553011 -11.2578125 168.08984375 C-32.32836205 150.19773303 -68.73489998 158.33984375 -91.1328125 158.33984375 Z " fill="#ECBE43" transform="translate(1448.1328125,86.66015625)"/>
<path d="M0 0 C1.30616272 -0.00960754 2.61232544 -0.01921509 3.95806885 -0.02911377 C5.38057274 -0.03396704 6.8030787 -0.03824456 8.22558594 -0.04199219 C8.94999626 -0.04481956 9.67440659 -0.04764694 10.42076874 -0.05056 C14.26586772 -0.06553679 18.11092944 -0.07477168 21.95605469 -0.07910156 C25.87902216 -0.08453755 29.80163393 -0.10846489 33.72449112 -0.13707352 C36.78079116 -0.15595571 39.83701059 -0.16091917 42.89336395 -0.16243744 C44.33627993 -0.16541499 45.77919625 -0.17327153 47.22205353 -0.18662262 C70.83004338 -0.38920849 91.65993895 4.97680698 109.27246094 21.41113281 C127.90030985 41.13072379 130.61416982 65.767973 130.60522461 91.54345703 C130.60822201 93.27765983 130.61162587 95.01186196 130.61540222 96.74606323 C130.62418583 101.42795718 130.62657791 106.10983282 130.62721801 110.79173422 C130.62793155 113.72348436 130.63007158 116.65522992 130.63271523 119.58697891 C130.64194896 129.83354231 130.64605246 140.08009274 130.64526367 150.32666016 C130.64466294 159.84866279 130.65521889 169.37060877 130.67100734 178.89259708 C130.68411758 187.09423076 130.68944613 195.29584598 130.68880826 203.49749005 C130.68855436 208.38434225 130.69134578 213.27114401 130.70198631 218.15798569 C130.71172653 222.75618968 130.71170621 227.35429558 130.70446968 231.9525032 C130.70343127 233.6305633 130.70574201 235.3086297 130.71183014 236.98667908 C130.79671834 262.02461153 125.61239705 284.74817354 107.52246094 303.12988281 C90.04710605 319.19593489 69.88841585 322.30800519 47.07714844 322.36425781 C46.29979465 322.36708519 45.52244087 322.36991257 44.72153091 322.37282562 C40.61562012 322.38772916 36.50974372 322.39701699 32.40380859 322.40136719 C28.17955708 322.40686964 23.95562497 322.43095998 19.73147392 322.45933914 C16.46455974 322.47800283 13.19772242 322.48317288 9.93075943 322.48470306 C8.37351848 322.48771666 6.81627846 322.49570123 5.25909042 322.50888824 C3.07954414 322.52604409 0.90077877 322.52404697 -1.27880859 322.51757812 C-2.51519073 322.52122375 -3.75157288 322.52486938 -5.02542114 322.52862549 C-9.21622185 322.09043033 -11.91290459 321.33743364 -15.54003906 319.16113281 C-19.91422884 312.41926286 -20.10757109 306.71062592 -20.04124451 298.81234741 C-20.0495461 296.96472052 -20.0495461 296.96472052 -20.05801541 295.07976782 C-20.06924133 291.67723014 -20.06261955 288.27559069 -20.04827869 284.87312222 C-20.03714438 281.1975627 -20.0491195 277.52206713 -20.05812073 273.84651184 C-20.07203769 266.65323037 -20.06450888 259.46012471 -20.04944514 252.26685165 C-20.03256859 243.88849021 -20.03579731 235.51017236 -20.03953923 227.13179918 C-20.04541479 212.18320822 -20.03125719 197.23470156 -20.0065918 182.28613281 C-19.98266331 167.78251996 -19.97559127 153.27901968 -19.98608398 138.77539062 C-19.9974932 122.97664973 -19.99942388 107.17796087 -19.98498589 91.3792206 C-19.98346006 89.69470446 -19.98193971 88.01018831 -19.98042488 86.32567215 C-19.97966707 85.49687913 -19.97890925 84.66808612 -19.97812847 83.81417816 C-19.97338635 77.97443219 -19.97523652 72.13470946 -19.97949028 66.29496384 C-19.98441675 59.17957507 -19.9784332 52.06429273 -19.95859598 44.94892834 C-19.94872465 41.31880064 -19.94361714 37.688835 -19.95148849 34.05869865 C-19.959845 30.12434637 -19.94496471 26.19027883 -19.92771912 22.25595093 C-19.93372916 21.1077095 -19.93973921 19.95946807 -19.94593138 18.77643144 C-19.90127949 13.19218273 -19.82051187 8.92237137 -16.54003906 4.16113281 C-11.42117694 0.25463277 -6.26730734 0.03735328 0 0 Z M8.45996094 26.16113281 C8.45996094 115.26113281 8.45996094 204.36113281 8.45996094 296.16113281 C52.10440951 300.65082702 52.10440951 300.65082702 89.20605469 283.84082031 C95.98723224 275.77862308 100.49766855 266.54019998 102.45996094 256.16113281 C102.71773882 254.82331914 102.71773882 254.82331914 102.98072433 253.45847893 C103.49862814 249.89508643 103.59192986 246.50451296 103.60040283 242.90359497 C103.60337395 242.19513581 103.60634508 241.48667665 103.60940623 240.75674903 C103.61804384 238.3942984 103.61959731 236.03189874 103.62109375 233.66943359 C103.62572566 231.97039178 103.63075082 230.27135099 103.63613892 228.5723114 C103.64923448 223.96223567 103.65570305 219.35217449 103.66014957 214.74208307 C103.66308666 211.85573159 103.6671928 208.96938402 103.67165375 206.08303452 C103.6853251 197.03494318 103.69499188 187.98686087 103.69885564 178.93875992 C103.70332683 168.52760952 103.72083253 158.11659102 103.74985623 147.70548069 C103.77155743 139.63808241 103.7815645 131.570721 103.78289676 123.50329387 C103.78393934 118.69504712 103.78972897 113.88692442 103.80771637 109.07870865 C103.82434215 104.54618995 103.82628314 100.01388659 103.81757736 95.48134804 C103.81681451 93.83034877 103.82104862 92.17933723 103.83103561 90.528368 C103.94102842 71.18905956 101.47720659 53.3319669 88.45996094 38.16113281 C68.43463537 18.38612381 30.92796971 26.16113281 8.45996094 26.16113281 Z " fill="#ECBE43" transform="translate(1160.5400390625,72.8388671875)"/>
<path d="M0 0 C1.55449944 0.04240151 3.10923034 0.07686343 4.6640625 0.10449219 C35.68323953 0.69585621 70.81044425 7.0649856 94.1875 28.88623047 C103.83380998 38.94801822 106.67419787 49.31380652 106.57002258 63.03288269 C106.42951874 68.39452597 105.90014661 73.57654272 105.03125 78.86669922 C104.89988144 79.68007751 104.76851288 80.49345581 104.63316345 81.33148193 C103.2077779 89.876952 101.361004 98.31972998 99.42163086 106.76123047 C98.83330216 109.32348902 98.25481717 111.88782432 97.67773438 114.45263672 C95.9823307 121.93420105 94.21692383 129.35603511 92.11328125 136.73388672 C89.7258714 145.57837602 89.7258714 145.57837602 88.2734375 161.06201172 C57.2534375 161.06201172 26.2334375 161.06201172 -5.7265625 161.06201172 C-6.3865625 155.78201172 -7.0465625 150.50201172 -7.7265625 145.06201172 C-10.42527174 138.72318304 -13.56436281 133.25734443 -17.2890625 127.49951172 C-36.94441575 97.02509341 -39.08305514 53.32957622 -38.7265625 18.06201172 C-38.0871875 18.72201172 -37.4478125 19.38201172 -36.7890625 20.06201172 C-35.77296291 21.06682131 -34.75143164 22.06614831 -33.7265625 23.06201172 C-32.81390625 23.95146484 -32.81390625 23.95146484 -31.8828125 24.85888672 C-18.18563084 37.63610841 -1.42714153 45.43461495 16.2734375 51.06201172 C16.33813232 51.70525391 16.40282715 52.34849609 16.46948242 53.01123047 C19.06133389 78.44195588 19.06133389 78.44195588 30.2734375 101.06201172 C30.89734375 101.99529297 31.52125 102.92857422 32.1640625 103.89013672 C35.41700808 108.2033016 37.49403031 110.76073643 42.96484375 111.68701172 C46.45808303 111.68701172 49.81037935 111.50536198 53.2734375 111.06201172 C52.80035156 110.71912109 52.32726562 110.37623047 51.83984375 110.02294922 C36.54742624 97.92017825 31.07810498 78.93471017 28.53466797 60.34130859 C27.7629347 53.60775551 27.5030678 46.8321464 27.2734375 40.06201172 C26.20867187 39.97564453 25.14390625 39.88927734 24.046875 39.80029297 C7.55394887 38.27922134 -8.39962483 34.07555854 -19.44921875 20.89404297 C-22.39092805 16.67489416 -22.19503442 11.99831764 -21.7265625 7.06201172 C-20.6015625 4.12451172 -20.6015625 4.12451172 -18.7265625 2.06201172 C-12.52935505 -0.49556596 -6.56271395 -0.17917157 0 0 Z " fill="#E97110" transform="translate(617.7265625,236.93798828125)"/>
<path d="M0 0 C14.40423132 12.52888818 23.2280655 28.65182039 24.8203125 47.640625 C26.05708994 67.19743393 23.06230474 84.83122721 10.11328125 100.35644531 C-2.54684815 114.68574163 -19.37082779 121.71437443 -38.1796875 123.640625 C-46.8587623 124.09997096 -55.55540426 123.92678909 -64.2421875 123.828125 C-66.57355899 123.81303994 -68.90494001 123.79935835 -71.23632812 123.78710938 C-76.88432631 123.75443236 -82.53196083 123.70454075 -88.1796875 123.640625 C-88.13503793 128.81497101 -88.06470047 133.98815358 -87.97216797 139.16186523 C-87.94422 140.91600198 -87.92287758 142.67025853 -87.90869141 144.42456055 C-87.77669155 159.83774368 -86.51113281 173.90262295 -75.296875 185.60546875 C-65.52196019 194.67122307 -54.93785757 197.17973581 -41.80859375 196.953125 C-30.61904838 195.98954736 -20.60706821 191.65109792 -12.9296875 183.390625 C-5.60277085 174.07468388 -3.10974982 163.44192363 -1.7265625 151.83984375 C-1.1796875 148.640625 -1.1796875 148.640625 0.8203125 146.640625 C4.46784917 146.1883015 8.14794511 146.31656213 11.8203125 146.328125 C12.84382812 146.31201172 13.86734375 146.29589844 14.921875 146.27929688 C16.38753906 146.27833008 16.38753906 146.27833008 17.8828125 146.27734375 C18.78128906 146.27436279 19.67976562 146.27138184 20.60546875 146.26831055 C21.70181641 146.4526062 21.70181641 146.4526062 22.8203125 146.640625 C26.79617426 152.60441764 24.57804472 160.57695429 23.29980469 167.27587891 C20.87605198 178.9781439 16.26365683 189.23850584 8.8203125 198.640625 C8.0984375 199.65125 7.3765625 200.661875 6.6328125 201.703125 C-4.04042354 213.97560813 -20.23924965 221.11671281 -36.1796875 222.640625 C-58.5911426 223.81318375 -77.15202638 219.59367095 -94.38671875 204.73828125 C-106.3962136 193.50951837 -113.61633008 176.63258299 -114.27833366 160.19057655 C-114.32357417 157.2666006 -114.33766956 154.34400508 -114.34082031 151.41967773 C-114.34578522 150.30972946 -114.35075012 149.19978119 -114.35586548 148.05619812 C-114.3704318 144.39553194 -114.37728076 140.73490912 -114.3828125 137.07421875 C-114.38856955 134.51701355 -114.39432721 131.95980835 -114.40008545 129.40260315 C-114.40924127 124.72609932 -114.4155472 120.04960836 -114.4185822 115.37309784 C-114.42305198 108.52648955 -114.44055747 101.68008199 -114.4695828 94.83353466 C-114.49396293 88.87217392 -114.50153423 82.91086212 -114.50325775 76.94944954 C-114.50626813 74.42949393 -114.51424149 71.90953884 -114.52744293 69.38961601 C-114.65162293 43.85862701 -111.86519425 23.32131618 -93.8046875 3.828125 C-69.08828296 -19.52461584 -26.72377885 -19.82943787 0 0 Z M-78.1796875 23.640625 C-83.67968407 31.45165299 -87.43629113 39.24528066 -88.35546875 48.79296875 C-88.43525467 49.56720688 -88.51504059 50.34144501 -88.59724426 51.1391449 C-89.39260715 59.62024726 -89.44778205 68.09432386 -89.38549805 76.60620117 C-89.36678403 79.26034785 -89.36499231 81.91415244 -89.36523438 84.56835938 C-89.36033344 86.26041971 -89.35451146 87.9524777 -89.34765625 89.64453125 C-89.34654343 90.43598038 -89.3454306 91.2274295 -89.34428406 92.04286194 C-89.64675464 95.6391487 -89.64675464 95.6391487 -88.1796875 98.640625 C-86.7394698 98.74406175 -85.29425333 98.77912961 -83.8503418 98.78588867 C-82.92815353 98.79226852 -82.00596527 98.79864838 -81.05583191 98.80522156 C-80.04869644 98.80633438 -79.04156097 98.8074472 -78.00390625 98.80859375 C-76.96837112 98.81192215 -75.932836 98.81525055 -74.86592102 98.81867981 C-72.66249029 98.8237582 -70.45905182 98.82608786 -68.25561523 98.82592773 C-64.91962481 98.828091 -61.58397767 98.84617191 -58.24804688 98.86523438 C-56.10416779 98.86817294 -53.96028714 98.87015463 -51.81640625 98.87109375 C-50.83153732 98.87827927 -49.8466684 98.88546478 -48.83195496 98.89286804 C-34.60605756 98.84712705 -21.97681244 96.37021228 -11.2421875 86.453125 C-3.28349344 77.87446021 0.42279151 66.19150265 0.1328125 54.57421875 C-1.25431816 41.55252972 -5.3006744 29.38110629 -15.0703125 20.23828125 C-33.08759973 6.59185444 -62.31195879 6.17122414 -78.1796875 23.640625 Z " fill="#ECBF43" transform="translate(969.1796875,175.359375)"/>
<path d="M0 0 C16.28556945 13.84679021 23.28003721 33.04264096 25.30273438 53.68896484 C25.79019608 61.59873589 25.72687515 69.52157419 25.70117188 77.44287109 C25.70320009 79.68188064 25.70611768 81.92088953 25.70986938 84.15989685 C25.71425672 88.81996031 25.70797813 93.4798496 25.69384766 98.13989258 C25.67674818 104.06221397 25.68662519 109.98412752 25.70456505 115.90643406 C25.7154922 120.51973959 25.7119161 125.13295107 25.70418167 129.74625969 C25.70220477 131.92796822 25.70454874 134.10968578 25.71162033 136.29138374 C25.7758742 161.67106108 23.05130049 184.87925335 4.91210938 204.23583984 C-9.19614033 217.49928418 -26.60009484 223.46441052 -45.75976562 224.06396484 C-62.87488748 223.52472128 -78.36246596 218.53761542 -91.69726562 207.68896484 C-92.69757813 206.90779297 -93.69789063 206.12662109 -94.72851562 205.32177734 C-107.09090116 194.35829333 -114.08524684 176.86359251 -115.69726562 160.68896484 C-115.84705598 157.04039491 -115.85435509 153.3947184 -115.85839844 149.7434082 C-115.86336334 148.66272064 -115.86832825 147.58203308 -115.8734436 146.46859741 C-115.88800684 142.9053279 -115.89485841 139.34210294 -115.90039062 135.77880859 C-115.90614798 133.28886414 -115.91190563 130.79891968 -115.91766357 128.30897522 C-115.92815774 123.08968907 -115.93401041 117.87041825 -115.9375 112.65112305 C-115.9421881 105.99272857 -115.96698444 99.33456898 -115.99547195 92.67623043 C-116.01418169 87.5312289 -116.01930842 82.38627602 -116.02083588 77.24124336 C-116.0238454 74.78827354 -116.0318158 72.33530422 -116.04502106 69.88236809 C-116.17289888 44.29716276 -112.62496711 22.57508438 -94.40039062 3.23193359 C-90.21626058 -0.70429279 -85.74041971 -3.59384917 -80.69726562 -6.31103516 C-79.40369141 -7.01873047 -79.40369141 -7.01873047 -78.08398438 -7.74072266 C-53.80209451 -19.89965417 -21.44673187 -16.56630468 0 0 Z M-80.94335938 27.41943359 C-91.37716621 40.92064021 -90.13546621 58.71038223 -90.06054688 74.87646484 C-90.06002696 77.1097819 -90.06054973 79.34309941 -90.0620575 81.57641602 C-90.06196826 86.23607295 -90.05163833 90.89555515 -90.03344727 95.55517578 C-90.01076227 101.49254166 -90.01022147 107.42965286 -90.01696491 113.36705017 C-90.02032525 117.97247534 -90.0136361 122.57784371 -90.00383568 127.18325806 C-90.00001893 129.3710602 -89.99882062 131.5588687 -90.00042152 133.74667358 C-90.39935369 162.88042673 -90.39935369 162.88042673 -76.69726562 187.68896484 C-65.72387041 196.97702632 -53.81205461 199.55401793 -39.66503906 198.86816406 C-28.77760796 197.8766784 -19.39673026 192.81860692 -11.94726562 185.00146484 C-3.45765268 174.67998646 -1.3854607 162.59905173 -1.43847656 149.63647461 C-1.43497192 148.56857697 -1.43146729 147.50067932 -1.42785645 146.40042114 C-1.41910189 142.89367036 -1.42486657 139.3871237 -1.43164062 135.88037109 C-1.43029208 133.4285427 -1.42834996 130.97671457 -1.42584229 128.52488708 C-1.42289943 123.39490199 -1.42716137 118.26498672 -1.43652344 113.13500977 C-1.44791133 106.57720912 -1.44135724 100.01957232 -1.42937851 93.46177769 C-1.42213216 88.40100381 -1.42446069 83.34026841 -1.42963409 78.27949333 C-1.43096323 75.86230385 -1.42934882 73.44511082 -1.42467499 71.02792549 C-1.41956478 67.64214016 -1.42738332 64.25661565 -1.43847656 60.87084961 C-1.4344281 59.8830098 -1.43037964 58.89516998 -1.4262085 57.87739563 C-1.50897943 44.15900092 -5.08600684 31.62443841 -14.72460938 21.43505859 C-25.78727565 11.64295597 -38.29039492 9.62620727 -52.55859375 10.47753906 C-64.78564775 11.68628664 -73.25491022 18.34676268 -80.94335938 27.41943359 Z " fill="#ECBE43" transform="translate(505.697265625,175.31103515625)"/>
<path d="M0 0 C0.721875 0.86625 1.44375 1.7325 2.1875 2.625 C2.68926758 3.20636719 3.19103516 3.78773437 3.70800781 4.38671875 C11.41744979 16.05011216 11.72807456 36.19080232 14.0839119 49.61599731 C15.16103565 55.73595581 16.25867626 61.85229166 17.35546875 67.96875 C17.47593504 68.64116226 17.59640133 69.31357452 17.72051811 70.00636292 C19.94372403 82.4033482 22.28417974 94.77402499 24.75 107.125 C24.91367065 107.95370605 25.07734131 108.78241211 25.24597168 109.63623047 C25.70126505 111.93575747 26.16352606 114.23374576 26.62890625 116.53125 C26.88357666 117.79259766 27.13824707 119.05394531 27.40063477 120.35351562 C28.10238697 123.27113259 28.98388029 125.88242697 30.1875 128.625 C35.30464049 114.16930779 39.74238558 99.55722786 43.9375 84.8125 C44.18900818 83.93039856 44.44051636 83.04829712 44.699646 82.13946533 C47.39516889 72.67227862 50.04502156 63.19400242 52.60888672 53.69026184 C53.66528134 49.77624849 54.73153694 45.86494223 55.79748535 41.95352173 C56.54430328 39.19227952 57.27388546 36.42686696 58.00292969 33.66088867 C60.68514474 23.68700633 63.23569866 14.35171946 70.9375 7 C75.45724642 5.08779959 79.35236975 4.84539431 84.1875 5.625 C89.84251323 8.45250661 93.74849086 12.79574367 96.1875 18.625 C97.32444953 27.68915453 95.17259613 36.03871464 92.75 44.70703125 C92.38665586 46.05014316 92.02471061 47.39363418 91.6640625 48.73747253 C90.71358157 52.2653227 89.7456068 55.78812209 88.77325439 59.30999756 C87.81709566 62.78283543 86.87544282 66.25958714 85.93359375 69.73632812 C85.55934188 71.11714641 85.18505394 72.49795492 84.81072998 73.87875366 C84.62551537 74.56202099 84.44030075 75.24528831 84.24947357 75.94926071 C83.68739318 78.01992477 83.12336941 80.09005103 82.55889893 82.1600647 C79.90153825 91.91570047 77.32144098 101.68964892 74.796875 111.48046875 C74.47315918 112.73430862 74.14944336 113.9881485 73.81591797 115.27998352 C68.32983691 136.64618342 64.72708253 157.73806354 62.1875 179.625 C61.00776611 178.93555298 61.00776611 178.93555298 59.80419922 178.23217773 C56.59987372 176.36098321 53.39368779 174.49300124 50.1875 172.625 C49.51364258 172.22941895 48.83978516 171.83383789 48.14550781 171.42626953 C30.68738762 161.26058416 11.27101327 154.68463428 -8.8125 152.625 C-8.84166504 151.61228027 -8.87083008 150.59956055 -8.90087891 149.55615234 C-9.68486117 124.12589238 -12.33803039 99.64748259 -16.8125 74.625 C-18.28573901 66.35117276 -19.75215206 58.07620199 -21.20376396 49.79855537 C-22.00109022 45.26102906 -22.82216004 40.72816281 -23.6484375 36.19580078 C-24.07739644 33.78167736 -24.50580635 31.3674563 -24.93359375 28.953125 C-25.13846909 27.85670685 -25.34334442 26.7602887 -25.5544281 25.63064575 C-26.91029216 17.85085317 -27.80480559 9.94080312 -24.0625 2.6875 C-21.09590382 -1.35036702 -18.75919612 -2.81262112 -14 -4.1875 C-8.3983185 -4.51701068 -4.32846133 -3.65514512 0 0 Z " fill="#E97110" transform="translate(654.8125,74.375)"/>
<path d="M0 0 C0.92425781 -0.00515625 1.84851563 -0.0103125 2.80078125 -0.015625 C3.76371094 -0.00015625 4.72664062 0.0153125 5.71875 0.03125 C6.68167969 0.01578125 7.64460937 0.0003125 8.63671875 -0.015625 C10.02310547 -0.00789062 10.02310547 -0.00789062 11.4375 0 C12.7049707 0.00676758 12.7049707 0.00676758 13.99804688 0.01367188 C16.21875 0.53125 16.21875 0.53125 17.83373451 2.01321411 C19.85460103 5.68726286 19.63219708 9.25057847 19.59970093 13.33740234 C19.6043809 14.2363793 19.60906087 15.13535625 19.61388266 16.06157494 C19.62586887 19.08026159 19.6163612 22.0984973 19.60693359 25.1171875 C19.61099768 27.27875026 19.61633864 29.44031094 19.62286377 31.60186768 C19.63656251 37.47779668 19.63122811 43.35356799 19.62172651 49.22949982 C19.61414319 55.37224256 19.62117183 61.51497159 19.62588501 67.65771484 C19.63134643 77.97430857 19.62414079 88.29083792 19.60986328 98.60742188 C19.59353607 110.54307655 19.5988243 122.47857749 19.6153425 134.41422844 C19.62894633 144.65294144 19.63088242 154.89160811 19.62302649 165.13032722 C19.61834392 171.24940639 19.61774118 177.36841324 19.62763596 183.48748779 C19.63628727 189.23962366 19.6303172 194.99156088 19.61295319 200.74367523 C19.60897854 202.85767029 19.61013903 204.97168199 19.61674118 207.08567047 C19.62490805 209.965707 19.61469386 212.84510226 19.59970093 215.72509766 C19.60639309 216.56672644 19.61308526 217.40835522 19.61998022 218.2754879 C19.58598764 221.62920996 19.46799319 224.07829037 17.83373451 227.04829407 C14.5614229 230.05308692 9.92639096 229.14162811 5.71875 229.09375 C4.75582031 229.11759766 3.79289063 229.14144531 2.80078125 229.16601562 C1.87652344 229.16408203 0.95226562 229.16214844 0 229.16015625 C-0.84498047 229.16088135 -1.68996094 229.16160645 -2.56054688 229.16235352 C-4.78125 228.53125 -4.78125 228.53125 -6.39623451 226.54733372 C-8.2631132 222.48191895 -8.19764998 219.06495661 -8.16220093 214.64280701 C-8.1668809 213.74705918 -8.17156087 212.85131135 -8.17638266 211.92841965 C-8.18834957 208.9266572 -8.17886874 205.92534984 -8.16943359 202.92358398 C-8.17349851 200.7717258 -8.17883993 198.61986971 -8.18536377 196.46801758 C-8.19905184 190.62313821 -8.19373271 184.77841752 -8.18422651 178.93353534 C-8.17663866 172.82149495 -8.183673 166.70946828 -8.18838501 160.59742737 C-8.19384469 150.33388831 -8.18664491 140.070414 -8.17236328 129.80688477 C-8.15603206 117.93312503 -8.16132791 106.05951978 -8.1778425 94.18576378 C-8.1914461 83.99798554 -8.19338266 73.81025387 -8.18552649 63.62246948 C-8.18084435 57.53470422 -8.1802401 51.44701164 -8.19013596 45.35925102 C-8.19878708 39.63747022 -8.19281757 33.91588912 -8.17545319 28.19412994 C-8.17147862 26.09142196 -8.17263889 23.98869724 -8.17924118 21.88599586 C-8.18740826 19.02133835 -8.17719366 16.15732551 -8.16220093 13.29270935 C-8.16889309 12.45565364 -8.17558526 11.61859793 -8.18248022 10.75617689 C-8.14840317 7.41198033 -8.02660764 4.97682912 -6.39623451 2.01600742 C-4.22536168 0.0201867 -2.92330038 0.01560877 0 0 Z " fill="#E8BC42" transform="translate(797.78125,165.46875)"/>
<path d="M0 0 C4.06039551 2.80360643 5.70600671 6.0601254 6.625 10.8125 C6.70620233 12.9101396 6.73255808 15.01018762 6.72265625 17.109375 C6.71943359 18.31464844 6.71621094 19.51992187 6.71289062 20.76171875 C6.70032227 22.64310547 6.70032227 22.64310547 6.6875 24.5625 C6.68298828 25.83222656 6.67847656 27.10195312 6.67382812 28.41015625 C6.66204556 31.54431836 6.64559416 34.67838541 6.625 37.8125 C3.0847564 38.07525596 -0.45298133 38.23410329 -4 38.375 C-4.99902344 38.45041016 -5.99804688 38.52582031 -7.02734375 38.60351562 C-14.3038281 38.8203645 -14.3038281 38.8203645 -17.34130859 35.96240234 C-18.9220779 33.64371503 -20.18818379 31.35320331 -21.375 28.8125 C-21.85710938 27.8328125 -22.33921875 26.853125 -22.8359375 25.84375 C-24.88401221 20.1721585 -26.54198076 14.85958211 -25.375 8.8125 C-23.14885782 4.36021564 -20.86481614 1.94516267 -16.375 -0.1875 C-10.83873606 -1.83000154 -5.45073652 -1.91785174 0 0 Z " fill="#E87010" transform="translate(627.375,188.1875)"/>
<path d="M0 0 C3.7513458 4.1926806 6.29915604 8.66711265 6.625 14.375 C6.29455642 20.16346 3.78749215 24.75513585 -0.3125 28.75 C-5.37086027 31.95774066 -9.84772681 33.274096 -15.875 32.375 C-21.16689548 30.59822928 -24.81836555 28.14334975 -27.875 23.375 C-29.782416 17.65275199 -29.98497545 11.389044 -27.88671875 5.69140625 C-25.36467055 1.36485033 -22.86357902 -1.09345714 -18.125 -2.8125 C-11.58848094 -4.27163246 -5.80231536 -3.27956955 0 0 Z " fill="#EABD42" transform="translate(814.875,103.625)"/>
<path d="M0 0 C6.63748205 3.82790092 10.42632343 9.92238944 13 17 C13 17.99 13 18.98 13 20 C12.46890625 20.23074219 11.9378125 20.46148437 11.390625 20.69921875 C10.33101562 21.18841797 10.33101562 21.18841797 9.25 21.6875 C8.55390625 22.00074219 7.8578125 22.31398437 7.140625 22.63671875 C3.19545242 25.14924654 1.29873704 27.79800616 0.171875 32.33203125 C0.03265625 33.48058594 -0.1065625 34.62914062 -0.25 35.8125 C-0.39953125 36.97394531 -0.5490625 38.13539063 -0.703125 39.33203125 C-0.85007812 40.65267578 -0.85007812 40.65267578 -1 42 C-9.23641053 35.65110022 -16.47405506 27.27217608 -19 17 C-19.2334659 11.40743052 -17.64982172 7.2416847 -14 3 C-9.67553133 0.05149864 -5.15772577 -1.3160426 0 0 Z " fill="#E66F10" transform="translate(587,207)"/>
<path d="M0 0 C0.66 0.33 1.32 0.66 2 1 C-2.95 5.95 -7.9 10.9 -13 16 C-13.66 15.67 -14.32 15.34 -15 15 C-13.25420935 13.0585604 -11.50362507 11.12184216 -9.75 9.1875 C-9.25886719 8.64029297 -8.76773437 8.09308594 -8.26171875 7.52929688 C-5.68270045 4.69237675 -3.19370806 2.16715904 0 0 Z " fill="#CDA53C" transform="translate(418,173)"/>
<path d="M0 0 C0.66 0.33 1.32 0.66 2 1 C-2.29 5.29 -6.58 9.58 -11 14 C-11 9.82308582 -8.77013484 7.86318847 -6 5 C-4.05228995 3.24842937 -2.05675499 1.62627139 0 0 Z " fill="#CFA73C" transform="translate(1357,83)"/>
<path d="M0 0 C0.66 0.33 1.32 0.66 2 1 C-0.64 3.64 -3.28 6.28 -6 9 C-6 6 -6 6 -3.5625 3.375 C-2.716875 2.59125 -1.87125 1.8075 -1 1 C-0.67 0.67 -0.34 0.34 0 0 Z " fill="#D26710" transform="translate(727,81)"/>
<path d="" fill="#A15114" transform="translate(0,0)"/>
</svg>
